<?xml version="1.0" encoding="UTF-8" standalone="no"?>
<!-- Created with Inkscape (http://www.inkscape.org/) -->

<svg
   width="201.90117mm"
   height="131.65512mm"
   viewBox="0 0 201.90117 131.65512"
   version="1.1"
   id="svg5"
   sodipodi:docname="geometry.svg"
   inkscape:version="1.2.1 (1:1.2.1+202210291243+9c6d41e410)"
   xmlns:inkscape="http://www.inkscape.org/namespaces/inkscape"
   xmlns:sodipodi="http://sodipodi.sourceforge.net/DTD/sodipodi-0.dtd"
   xmlns="http://www.w3.org/2000/svg"
   xmlns:svg="http://www.w3.org/2000/svg"
   xmlns:ns1="http://www.iki.fi/pav/software/textext/">
  <sodipodi:namedview
     id="namedview7"
     pagecolor="#ffffff"
     bordercolor="#666666"
     borderopacity="1.0"
     inkscape:showpageshadow="2"
     inkscape:pageopacity="0.0"
     inkscape:pagecheckerboard="0"
     inkscape:deskcolor="#d1d1d1"
     inkscape:document-units="mm"
     showgrid="false"
     inkscape:zoom="0.97386896"
     inkscape:cx="455.91349"
     inkscape:cy="278.27152"
     inkscape:window-width="1920"
     inkscape:window-height="939"
     inkscape:window-x="0"
     inkscape:window-y="32"
     inkscape:window-maximized="1"
     inkscape:current-layer="layer1" />
  <defs
     id="defs2">
    <marker
       style="overflow:visible"
       id="marker3219"
       refX="0"
       refY="0"
       orient="auto-start-reverse"
       inkscape:stockid="Arrow2"
       markerWidth="7.6999998"
       markerHeight="5.5999999"
       viewBox="0 0 7.7 5.6"
       inkscape:isstock="true"
       inkscape:collect="always"
       preserveAspectRatio="xMidYMid">
      <path
         transform="scale(0.7)"
         d="M -2,-4 9,0 -2,4 c 2,-2.33 2,-5.66 0,-8 z"
         style="fill:context-stroke;fill-rule:evenodd;stroke:none"
         id="path3217" />
    </marker>
    <marker
       style="overflow:visible"
       id="marker3137"
       refX="0"
       refY="0"
       orient="auto-start-reverse"
       inkscape:stockid="Arrow2"
       markerWidth="7.6999998"
       markerHeight="5.5999999"
       viewBox="0 0 7.7 5.6"
       inkscape:isstock="true"
       inkscape:collect="always"
       preserveAspectRatio="xMidYMid">
      <path
         transform="scale(0.7)"
         d="M -2,-4 9,0 -2,4 c 2,-2.33 2,-5.66 0,-8 z"
         style="fill:context-stroke;fill-rule:evenodd;stroke:none"
         id="path3135" />
    </marker>
    <marker
       style="overflow:visible"
       id="marker2208"
       refX="0"
       refY="0"
       orient="auto-start-reverse"
       inkscape:stockid="Arrow2"
       markerWidth="7.6999998"
       markerHeight="5.5999999"
       viewBox="0 0 7.7 5.6"
       inkscape:isstock="true"
       inkscape:collect="always"
       preserveAspectRatio="xMidYMid">
      <path
         transform="scale(0.7)"
         d="M -2,-4 9,0 -2,4 c 2,-2.33 2,-5.66 0,-8 z"
         style="fill:context-stroke;fill-rule:evenodd;stroke:none"
         id="path2206" />
    </marker>
    <marker
       style="overflow:visible"
       id="marker2162"
       refX="0"
       refY="0"
       orient="auto-start-reverse"
       inkscape:stockid="Arrow2"
       markerWidth="7.6999998"
       markerHeight="5.5999999"
       viewBox="0 0 7.7 5.6"
       inkscape:isstock="true"
       inkscape:collect="always"
       preserveAspectRatio="xMidYMid">
      <path
         transform="scale(0.7)"
         d="M -2,-4 9,0 -2,4 c 2,-2.33 2,-5.66 0,-8 z"
         style="fill:context-stroke;fill-rule:evenodd;stroke:none"
         id="path2160" />
    </marker>
    <marker
       style="overflow:visible"
       id="Arrow2"
       refX="0"
       refY="0"
       orient="auto-start-reverse"
       inkscape:stockid="Arrow2"
       markerWidth="7.6999998"
       markerHeight="5.5999999"
       viewBox="0 0 7.7 5.6"
       inkscape:isstock="true"
       inkscape:collect="always"
       preserveAspectRatio="xMidYMid">
      <path
         transform="scale(0.7)"
         d="M -2,-4 9,0 -2,4 c 2,-2.33 2,-5.66 0,-8 z"
         style="fill:context-stroke;fill-rule:evenodd;stroke:none"
         id="arrow2L" />
    </marker>
  </defs>
  <g
     inkscape:label="Layer 1"
     inkscape:groupmode="layer"
     id="layer1"
     transform="translate(-1.4468296,-16.322805)">
    <rect
       style="opacity:0.462445;fill:#0000ff;stroke:none;stroke-width:0.529167;stroke-linecap:round;stroke-dasharray:none;stroke-dashoffset:0"
       id="rect5631"
       width="201.90117"
       height="131.65512"
       x="1.4468296"
       y="16.322805" />
    <path
       style="fill:none;stroke:#000000;stroke-width:0.529167;stroke-linecap:round;stroke-linejoin:miter;stroke-dasharray:none;stroke-dashoffset:0;stroke-opacity:1;marker-start:url(#marker3137);marker-end:url(#marker3219)"
       d="M 183.9728,124.83247 V 39.878083"
       id="path3133"
       sodipodi:nodetypes="cc" />
    <g
       transform="matrix(1.41111,0,0,1.41111,188.72256,74.659074)"
       ns1:version="1.8.2"
       ns1:texconverter="pdflatex"
       ns1:pdfconverter="inkscape"
       ns1:text="$L$"
       ns1:preamble="/home/benjaminspreng/.config/inkscape/extensions/textext/default_packages.tex"
       ns1:scale="4.0"
       ns1:alignment="middle center"
       ns1:stroke-to-path="0"
       ns1:jacobian_sqrt="1.41111"
       id="g3662">
      <defs
         id="id-ba65ea9a-4593-42ae-ba26-267aa84d4649">
        <g
           id="id-b6e8579c-18c7-43c0-9556-76b65e27217a">
          <symbol
             overflow="visible"
             id="id-c54241c0-0d56-45fa-9b21-c3b976f909b7">
            <path
               style="stroke:none"
               d=""
               id="id-10ab02b7-2c7e-4570-9cb5-bd04e2110d81" />
          </symbol>
          <symbol
             overflow="visible"
             id="id-18effbce-9f8b-44d9-bf88-1a047e0461a6">
            <path
               style="stroke:none"
               d="M 3.734375,-6.03125 C 3.8125,-6.390625 3.84375,-6.5 4.78125,-6.5 c 0.296875,0 0.375,0 0.375,-0.1875 0,-0.125 -0.109375,-0.125 -0.15625,-0.125 -0.328125,0 -1.140625,0.03125 -1.46875,0.03125 -0.296875,0 -1.03125,-0.03125 -1.328125,-0.03125 -0.0625,0 -0.1875,0 -0.1875,0.203125 0,0.109375 0.09375,0.109375 0.28125,0.109375 0.015625,0 0.203125,0 0.375,0.015625 0.171875,0.03125 0.265625,0.03125 0.265625,0.171875 0,0.03125 0,0.0625 -0.03125,0.1875 L 1.5625,-0.78125 c -0.09375,0.390625 -0.109375,0.46875 -0.90625,0.46875 -0.171875,0 -0.265625,0 -0.265625,0.203125 C 0.390625,0 0.484375,0 0.65625,0 h 4.625 C 5.515625,0 5.515625,0 5.578125,-0.171875 L 6.375,-2.328125 c 0.03125,-0.109375 0.03125,-0.125 0.03125,-0.140625 0,-0.03125 -0.03125,-0.109375 -0.109375,-0.109375 -0.09375,0 -0.109375,0.0625 -0.171875,0.21875 -0.34375,0.90625 -0.78125,2.046875 -2.5,2.046875 H 2.6875 c -0.140625,0 -0.171875,0 -0.21875,0 -0.109375,-0.015625 -0.140625,-0.03125 -0.140625,-0.109375 0,-0.03125 0,-0.046875 0.046875,-0.21875 z m 0,0"
               id="id-82de4ab0-7203-412c-a99f-c5d5e2c99009" />
          </symbol>
        </g>
      </defs>
      <g
         id="id-2cb08845-1a2d-4549-8001-51caf4448a1f"
         transform="translate(-149.103,-127.953)">
        <g
           style="fill:#000000;fill-opacity:1"
           id="id-30d3a0d2-8dae-4104-84cd-8322e04a52bf">
          <g
             transform="translate(148.712,134.765)"
             id="g3783">
            <path
               style="stroke:none"
               d="M 3.734375,-6.03125 C 3.8125,-6.390625 3.84375,-6.5 4.78125,-6.5 c 0.296875,0 0.375,0 0.375,-0.1875 0,-0.125 -0.109375,-0.125 -0.15625,-0.125 -0.328125,0 -1.140625,0.03125 -1.46875,0.03125 -0.296875,0 -1.03125,-0.03125 -1.328125,-0.03125 -0.0625,0 -0.1875,0 -0.1875,0.203125 0,0.109375 0.09375,0.109375 0.28125,0.109375 0.015625,0 0.203125,0 0.375,0.015625 0.171875,0.03125 0.265625,0.03125 0.265625,0.171875 0,0.03125 0,0.0625 -0.03125,0.1875 L 1.5625,-0.78125 c -0.09375,0.390625 -0.109375,0.46875 -0.90625,0.46875 -0.171875,0 -0.265625,0 -0.265625,0.203125 C 0.390625,0 0.484375,0 0.65625,0 h 4.625 C 5.515625,0 5.515625,0 5.578125,-0.171875 L 6.375,-2.328125 c 0.03125,-0.109375 0.03125,-0.125 0.03125,-0.140625 0,-0.03125 -0.03125,-0.109375 -0.109375,-0.109375 -0.09375,0 -0.109375,0.0625 -0.171875,0.21875 -0.34375,0.90625 -0.78125,2.046875 -2.5,2.046875 H 2.6875 c -0.140625,0 -0.171875,0 -0.21875,0 -0.109375,-0.015625 -0.140625,-0.03125 -0.140625,-0.109375 0,-0.03125 0,-0.046875 0.046875,-0.21875 z m 0,0"
               id="id-f2324f9b-3cc7-430c-b105-1912eaa23c39" />
          </g>
        </g>
      </g>
    </g>
    <g
       id="g5998">
      <ellipse
         style="fill:#ffffff;stroke:#000000;stroke-width:0.529167;stroke-dasharray:none;stroke-dashoffset:0"
         id="path1516"
         cx="58.297058"
         cy="36.856339"
         rx="29.952129"
         ry="8.8863277" />
      <path
         id="ellipse1678"
         style="fill:#ffffff;stroke:#000000;stroke-width:0.529167;stroke-dasharray:none;stroke-dashoffset:0"
         d="m 55.846886,28.003459 a 29.952129,8.8863277 0 0 0 -0.706934,0.02067 29.952129,8.8863277 0 0 1 0.706934,-0.02067 z m 5.162475,0.0036 a 29.952129,8.8863277 0 0 1 0.114205,0.0031 29.952129,8.8863277 0 0 0 -0.114205,-0.0031 z m -7.832597,0.09818 a 29.952129,8.8863277 0 0 0 -0.527099,0.02584 29.952129,8.8863277 0 0 1 0.527099,-0.02584 z m 10.586434,0.01447 a 29.952129,8.8863277 0 0 1 0.07906,0.0047 29.952129,8.8863277 0 0 0 -0.07906,-0.0047 z m -13.472046,0.1757 a 29.952129,8.8863277 0 0 0 -0.606681,0.05478 29.952129,8.8863277 0 0 1 0.606681,-0.05478 z m 16.127695,0.0083 a 29.952129,8.8863277 0 0 1 0.14676,0.0124 29.952129,8.8863277 0 0 0 -0.14676,-0.0124 z m -18.539434,0.226343 a 29.952129,8.8863277 0 0 0 -0.65164,0.07235 29.952129,8.8863277 0 0 1 0.65164,-0.07235 z m 21.199224,0.03617 a 29.952129,8.8863277 0 0 1 0.06873,0.0078 29.952129,8.8863277 0 0 0 -0.06873,-0.0078 z m -24.081735,0.328662 a 29.952129,8.8863277 0 0 0 -0.254248,0.04031 29.952129,8.8863277 0 0 1 0.254248,-0.04031 z m -2.183329,0.359151 a 29.952129,8.8863277 0 0 0 -0.575676,0.106454 29.952129,8.8863277 0 0 1 0.575676,-0.106454 z m -2.275831,0.451652 a 29.952129,8.8863277 0 0 0 -0.374654,0.07958 29.952129,8.8863277 0 0 1 0.374654,-0.07958 z m 35.773525,0.05168 a 29.952129,8.8863277 0 0 1 0.07855,0.01757 29.952129,8.8863277 0 0 0 -0.07855,-0.01757 z m -38.009564,0.486792 a 29.952129,8.8863277 0 0 0 -0.489892,0.135909 29.952129,8.8863277 0 0 1 0.489892,-0.135909 z m 40.146904,0.03824 a 29.952129,8.8863277 0 0 1 0.05478,0.01499 29.952129,8.8863277 0 0 0 -0.05478,-0.01499 z m -41.983484,0.497128 a 29.952129,8.8863277 0 0 0 -0.452686,0.143143 29.952129,8.8863277 0 0 1 0.452686,-0.143143 z m 43.927034,0.07803 a 29.952129,8.8863277 0 0 1 0.07338,0.02377 29.952129,8.8863277 0 0 0 -0.07338,-0.02377 z m -45.93208,0.6196 a 29.952129,8.8863277 0 0 0 -0.264583,0.110071 29.952129,8.8863277 0 0 1 0.264583,-0.110071 z m 47.71027,0.01344 a 29.952129,8.8863277 0 0 1 0.04909,0.01912 29.952129,8.8863277 0 0 0 -0.04909,-0.01912 z M 33.047244,32.08436 a 29.952129,8.8863277 0 0 0 -0.384473,0.183451 29.952129,8.8863277 0 0 1 0.384473,-0.183451 z m 50.698713,0.0863 a 29.952129,8.8863277 0 0 1 0.02636,0.0124 29.952129,8.8863277 0 0 0 -0.02636,-0.0124 z m -52.145653,0.663009 a 29.952129,8.8863277 0 0 0 -0.13746,0.07648 29.952129,8.8863277 0 0 1 0.13746,-0.07648 z m -1.123963,0.73949 a 29.952129,8.8863277 0 0 0 -0.239262,0.188102 29.952129,8.8863277 0 0 1 0.239262,-0.188102 z m 55.737686,0.0646 a 29.952129,8.8863277 0 0 1 0.02429,0.0186 29.952129,8.8863277 0 0 0 -0.02429,-0.0186 z m -56.596548,0.67231 a 29.952129,8.8863277 0 0 0 -0.171566,0.167432 29.952129,8.8863277 0 0 1 0.171566,-0.167432 z m 57.477628,0.104904 a 29.952129,8.8863277 0 0 1 0.01809,0.0186 29.952129,8.8863277 0 0 0 -0.01809,-0.0186 z m -58.207299,0.766878 a 29.952129,8.8863277 0 0 0 -0.0863,0.155029 29.952129,8.8863277 0 0 1 0.0863,-0.155029 z m 58.841889,0.02997 a 29.952129,8.8863277 0 0 1 0.01395,0.0217 29.952129,8.8863277 0 0 0 -0.01395,-0.0217 z m -59.202591,0.707967 a 29.952129,8.8863277 0 0 0 -0.06925,0.208773 29.952129,8.8863277 0 0 1 0.06925,-0.208773 z m 59.589131,0.10542 a 29.952129,8.8863277 0 0 1 0.0062,0.01912 29.952129,8.8863277 0 0 0 -0.0062,-0.01912 z m -59.771549,0.830957 v 90.588275 a 29.952129,8.8863277 0 0 0 29.952177,8.88628 29.952129,8.8863277 0 0 0 29.952182,-8.88628 V 36.856148 a 29.952129,8.8863277 0 0 1 -29.952182,8.88628 29.952129,8.8863277 0 0 1 -29.952177,-8.88628 z" />
      <ellipse
         style="fill:#ffffff;stroke:#000000;stroke-width:0.529167;stroke-dasharray:none;stroke-dashoffset:0"
         id="ellipse1680"
         cx="154.96066"
         cy="36.856339"
         rx="21.489475"
         ry="6.3755908" />
      <path
         id="ellipse1753"
         style="fill:#ffffff;stroke:#000000;stroke-width:0.529167;stroke-dasharray:none;stroke-dashoffset:0"
         d="m 154.9605,30.480827 a 21.489475,6.3755908 0 0 0 -1.988,0.03049 21.489475,6.3755908 0 0 1 1.988,-0.03049 z m 1.3131,0.0124 a 21.489475,6.3755908 0 0 1 0.13539,0.0021 21.489475,6.3755908 0 0 0 -0.13539,-0.0021 z m -3.76877,0.03204 a 21.489475,6.3755908 0 0 0 -1.89807,0.0894 21.489475,6.3755908 0 0 1 1.89807,-0.0894 z m 5.2064,0.0088 a 21.489475,6.3755908 0 0 1 0.0868,0.0031 21.489475,6.3755908 0 0 0 -0.0868,-0.0031 z m 1.36323,0.06563 a 21.489475,6.3755908 0 0 1 0.13797,0.0078 21.489475,6.3755908 0 0 0 -0.13797,-0.0078 z m -8.8191,0.03927 a 21.489475,6.3755908 0 0 0 -1.71824,0.136942 21.489475,6.3755908 0 0 1 1.71824,-0.136942 z m 10.16424,0.05168 a 21.489475,6.3755908 0 0 1 0.21032,0.01705 21.489475,6.3755908 0 0 0 -0.21032,-0.01705 z m -12.19719,0.113688 a 21.489475,6.3755908 0 0 0 -1.81591,0.206189 21.489475,6.3755908 0 0 1 1.81591,-0.206189 z m 13.57333,0.0083 a 21.489475,6.3755908 0 0 1 0.16226,0.01654 21.489475,6.3755908 0 0 0 -0.16226,-0.01654 z m 1.3472,0.148828 a 21.489475,6.3755908 0 0 1 0.10852,0.01395 21.489475,6.3755908 0 0 0 -0.10852,-0.01395 z m -17.14934,0.104386 a 21.489475,6.3755908 0 0 0 -1.77767,0.269234 21.489475,6.3755908 0 0 1 1.77767,-0.269234 z m -1.77767,0.269234 a 21.489475,6.3755908 0 0 0 -1.68103,0.323495 21.489475,6.3755908 0 0 1 1.68103,-0.323495 z m 22.62033,0.208773 a 21.489475,6.3755908 0 0 1 0.0879,0.01654 21.489475,6.3755908 0 0 0 -0.0879,-0.01654 z m -24.65379,0.189653 a 21.489475,6.3755908 0 0 0 -1.51826,0.365352 21.489475,6.3755908 0 0 1 1.51826,-0.365352 z m 25.77207,0.04599 a 21.489475,6.3755908 0 0 1 0.13591,0.03049 21.489475,6.3755908 0 0 0 -0.13591,-0.03049 z m 1.08158,0.260449 a 21.489475,6.3755908 0 0 1 0.16227,0.04186 21.489475,6.3755908 0 0 0 -0.16227,-0.04186 z m -28.61427,0.12609 a 21.489475,6.3755908 0 0 0 -1.26814,0.375688 21.489475,6.3755908 0 0 1 1.26814,-0.375688 z m 29.66486,0.162781 a 21.489475,6.3755908 0 0 1 0.13435,0.03979 21.489475,6.3755908 0 0 0 -0.13435,-0.03979 z m -31.16399,0.286287 a 21.489475,6.3755908 0 0 0 -1.22525,0.449069 21.489475,6.3755908 0 0 1 1.22525,-0.449069 z m 32.14687,0.02274 a 21.489475,6.3755908 0 0 1 0.1049,0.03566 21.489475,6.3755908 0 0 0 -0.1049,-0.03566 z m 0.90124,0.323495 a 21.489475,6.3755908 0 0 1 0.0987,0.03927 21.489475,6.3755908 0 0 0 -0.0987,-0.03927 z m -34.53071,0.209289 a 21.489475,6.3755908 0 0 0 -1.07797,0.492477 21.489475,6.3755908 0 0 1 1.07797,-0.492477 z m 35.37458,0.137976 a 21.489475,6.3755908 0 0 1 0.0414,0.01912 21.489475,6.3755908 0 0 0 -0.0414,-0.01912 z m -36.47477,0.366386 a 21.489475,6.3755908 0 0 0 -0.89917,0.522966 21.489475,6.3755908 0 0 1 0.89917,-0.522966 z m 37.84937,0.336414 a 21.489475,6.3755908 0 0 1 0.0615,0.03566 21.489475,6.3755908 0 0 0 -0.0615,-0.03566 z m -38.92993,0.305407 a 21.489475,6.3755908 0 0 0 -0.70021,0.541569 21.489475,6.3755908 0 0 1 0.70021,-0.541569 z m 39.51594,0.07441 a 21.489475,6.3755908 0 0 1 0.0589,0.04134 21.489475,6.3755908 0 0 0 -0.0589,-0.04134 z m 0.49196,0.381889 a 21.489475,6.3755908 0 0 1 0.0687,0.05943 21.489475,6.3755908 0 0 0 -0.0687,-0.05943 z m -40.80216,0.17725 a 21.489475,6.3755908 0 0 0 -0.46406,0.513147 21.489475,6.3755908 0 0 1 0.46406,-0.513147 z m 41.22177,0.225826 a 21.489475,6.3755908 0 0 1 0.0548,0.06046 21.489475,6.3755908 0 0 0 -0.0548,-0.06046 z m -41.76282,0.385507 a 21.489475,6.3755908 0 0 0 -0.3049,0.571024 21.489475,6.3755908 0 0 1 0.3049,-0.571024 z m 42.09303,0.0248 a 21.489475,6.3755908 0 0 1 0.0393,0.05994 21.489475,6.3755908 0 0 0 -0.0393,-0.05994 z m 0.23926,0.420646 a 21.489475,6.3755908 0 0 1 0.0196,0.04754 21.489475,6.3755908 0 0 0 -0.0196,-0.04754 z m -42.68059,0.256316 a 21.489475,6.3755908 0 0 0 -0.10439,0.592728 21.489475,6.3755908 0 0 1 0.10439,-0.592728 z m -0.10439,0.592728 v 90.588275 a 21.489475,6.3755908 0 0 0 21.48913,6.37532 21.489475,6.3755908 0 0 0 21.48964,-6.37532 V 36.856148 a 21.489475,6.3755908 0 0 1 -21.48964,6.375838 21.489475,6.3755908 0 0 1 -21.48913,-6.375838 z m 42.92968,-0.425814 a 21.489475,6.3755908 0 0 1 0.005,0.02946 21.489475,6.3755908 0 0 0 -0.005,-0.02946 z" />
      <g
         id="g2313"
         transform="translate(0,45.310793)">
        <path
           style="fill:none;stroke:#000000;stroke-width:0.79375;stroke-linecap:butt;stroke-linejoin:miter;stroke-dasharray:none;stroke-opacity:1;marker-end:url(#marker2208)"
           d="M 58.297058,36.856339 V 13.392201"
           id="path1825" />
        <path
           style="fill:none;stroke:#000000;stroke-width:0.79375;stroke-linecap:butt;stroke-linejoin:miter;stroke-dasharray:none;stroke-opacity:1;marker-end:url(#Arrow2)"
           d="M 58.297058,36.856339 H 81.761197"
           id="path1827" />
        <path
           style="fill:none;stroke:#000000;stroke-width:0.79375;stroke-linecap:butt;stroke-linejoin:miter;stroke-dasharray:none;stroke-opacity:1;marker-start:url(#marker2162)"
           d="m 50.071217,41.514779 8.304434,-4.794567"
           id="path1829" />
      </g>
      <path
         style="fill:none;stroke:#000000;stroke-width:0.529167;stroke-linecap:round;stroke-linejoin:miter;stroke-dasharray:1.05833, 1.05833;stroke-dashoffset:0;stroke-opacity:1"
         d="M 58.297058,127.47792 V 36.856339"
         id="path2357" />
      <path
         style="fill:none;stroke:#000000;stroke-width:0.529167;stroke-linecap:round;stroke-linejoin:miter;stroke-dasharray:1.05833, 1.05833;stroke-dashoffset:0;stroke-opacity:1"
         d="M 154.96066,127.47792 V 36.856339"
         id="path2361" />
      <path
         style="fill:none;stroke:#000000;stroke-width:0.529167;stroke-linecap:round;stroke-linejoin:miter;stroke-dasharray:none;stroke-opacity:1"
         d="M 58.297058,36.856339 80.525497,42.81243"
         id="path2367" />
      <path
         style="fill:none;stroke:#000000;stroke-width:0.529167;stroke-linecap:round;stroke-linejoin:miter;stroke-dasharray:none;stroke-opacity:1"
         d="m 154.96066,36.856339 15.94813,4.273288"
         id="path2369" />
      <path
         style="fill:none;stroke:#000000;stroke-width:0.529167;stroke-linecap:butt;stroke-linejoin:miter;stroke-dasharray:none;stroke-opacity:1;marker-start:url(#Arrow2);marker-end:url(#Arrow2)"
         d="M 91.944164,75.132417 H 129.69133"
         id="path3441"
         sodipodi:nodetypes="cc" />
      <g
         transform="matrix(1.41111,0,0,1.41111,67.85892,46.980187)"
         ns1:version="1.8.2"
         ns1:texconverter="pdflatex"
         ns1:pdfconverter="inkscape"
         ns1:text="$R_1$"
         ns1:preamble="/home/benjaminspreng/.config/inkscape/extensions/textext/default_packages.tex"
         ns1:scale="4.0"
         ns1:alignment="middle center"
         ns1:stroke-to-path="0"
         ns1:jacobian_sqrt="1.41111"
         id="g3873">
        <defs
           id="id-dd487f24-7ef0-457e-941f-3538d574a462">
          <g
             id="id-d8b3025d-eccf-429f-bfeb-c7d970443352">
            <symbol
               overflow="visible"
               id="id-a10973d2-bf1e-4681-9da1-5c899afec7f2">
              <path
                 style="stroke:none"
                 d=""
                 id="id-42c9306b-b95b-4bfe-8ecc-ac4815a30624" />
            </symbol>
            <symbol
               overflow="visible"
               id="id-8c37e200-dfd6-4728-865e-a69085e6c7fc">
              <path
                 style="stroke:none"
                 d="m 3.734375,-6.125 c 0.0625,-0.234375 0.09375,-0.328125 0.28125,-0.359375 C 4.109375,-6.5 4.421875,-6.5 4.625,-6.5 c 0.703125,0 1.8125,0 1.8125,0.984375 0,0.34375 -0.15625,1.03125 -0.546875,1.421875 -0.265625,0.25 -0.78125,0.578125 -1.6875,0.578125 H 3.09375 Z m 1.4375,2.734375 c 1.015625,-0.21875 2.1875,-0.921875 2.1875,-1.921875 0,-0.859375 -0.890625,-1.5 -2.203125,-1.5 H 2.328125 c -0.203125,0 -0.296875,0 -0.296875,0.203125 C 2.03125,-6.5 2.125,-6.5 2.3125,-6.5 c 0.015625,0 0.203125,0 0.375,0.015625 0.1875,0.03125 0.265625,0.03125 0.265625,0.171875 0,0.03125 0,0.0625 -0.03125,0.1875 l -1.34375,5.34375 C 1.484375,-0.390625 1.46875,-0.3125 0.671875,-0.3125 0.5,-0.3125 0.40625,-0.3125 0.40625,-0.109375 0.40625,0 0.53125,0 0.546875,0 c 0.28125,0 0.984375,-0.03125 1.25,-0.03125 0.28125,0 1,0.03125 1.28125,0.03125 0.078125,0 0.1875,0 0.1875,-0.203125 0,-0.109375 -0.078125,-0.109375 -0.28125,-0.109375 -0.359375,0 -0.640625,0 -0.640625,-0.171875 0,-0.0625 0.015625,-0.109375 0.03125,-0.171875 l 0.65625,-2.640625 h 1.1875 c 0.90625,0 1.078125,0.5625 1.078125,0.90625 0,0.140625 -0.078125,0.453125 -0.140625,0.6875 C 5.09375,-1.421875 5,-1.0625 5,-0.859375 5,0.21875 6.203125,0.21875 6.328125,0.21875 c 0.84375,0 1.203125,-1 1.203125,-1.140625 0,-0.125 -0.109375,-0.125 -0.125,-0.125 -0.09375,0 -0.109375,0.0625 -0.125,0.140625 C 7.03125,-0.171875 6.59375,0 6.375,0 6.046875,0 5.96875,-0.21875 5.96875,-0.609375 c 0,-0.3125 0.0625,-0.8125 0.109375,-1.140625 0.015625,-0.140625 0.03125,-0.328125 0.03125,-0.46875 0,-0.765625 -0.671875,-1.078125 -0.9375,-1.171875 z m 0,0"
                 id="id-dd1221e6-02fb-43ab-a5a3-2fb0d5f5670f" />
            </symbol>
            <symbol
               overflow="visible"
               id="id-e7c72524-5121-46b0-81a4-f06b20380b9b">
              <path
                 style="stroke:none"
                 d=""
                 id="id-f3e45e7d-210d-43f9-aa69-3ff2a135ec7a" />
            </symbol>
            <symbol
               overflow="visible"
               id="id-038658b6-825c-46cd-a68d-201d2fb39961">
              <path
                 style="stroke:none"
                 d="m 2.328125,-4.4375 c 0,-0.1875 0,-0.1875 -0.203125,-0.1875 -0.453125,0.4375 -1.078125,0.4375 -1.359375,0.4375 v 0.25 c 0.15625,0 0.625,0 1,-0.1875 v 3.546875 c 0,0.234375 0,0.328125 -0.6875,0.328125 H 0.8125 V 0 c 0.125,0 0.984375,-0.03125 1.234375,-0.03125 0.21875,0 1.09375,0.03125 1.25,0.03125 V -0.25 H 3.03125 c -0.703125,0 -0.703125,-0.09375 -0.703125,-0.328125 z m 0,0"
                 id="id-7809e568-2fb9-4253-bcb2-bf81c41ac457" />
            </symbol>
          </g>
        </defs>
        <g
           id="id-21915d4a-347a-4dc7-ac24-bb4363b7864a"
           transform="translate(-149.118,-127.953)">
          <g
             style="fill:#000000;fill-opacity:1"
             id="id-06fc1435-4964-40f6-ad82-f466d37a8ef7">
            <g
               transform="translate(148.712,134.765)"
               id="g4171">
              <path
                 style="stroke:none"
                 d="m 3.734375,-6.125 c 0.0625,-0.234375 0.09375,-0.328125 0.28125,-0.359375 C 4.109375,-6.5 4.421875,-6.5 4.625,-6.5 c 0.703125,0 1.8125,0 1.8125,0.984375 0,0.34375 -0.15625,1.03125 -0.546875,1.421875 -0.265625,0.25 -0.78125,0.578125 -1.6875,0.578125 H 3.09375 Z m 1.4375,2.734375 c 1.015625,-0.21875 2.1875,-0.921875 2.1875,-1.921875 0,-0.859375 -0.890625,-1.5 -2.203125,-1.5 H 2.328125 c -0.203125,0 -0.296875,0 -0.296875,0.203125 C 2.03125,-6.5 2.125,-6.5 2.3125,-6.5 c 0.015625,0 0.203125,0 0.375,0.015625 0.1875,0.03125 0.265625,0.03125 0.265625,0.171875 0,0.03125 0,0.0625 -0.03125,0.1875 l -1.34375,5.34375 C 1.484375,-0.390625 1.46875,-0.3125 0.671875,-0.3125 0.5,-0.3125 0.40625,-0.3125 0.40625,-0.109375 0.40625,0 0.53125,0 0.546875,0 c 0.28125,0 0.984375,-0.03125 1.25,-0.03125 0.28125,0 1,0.03125 1.28125,0.03125 0.078125,0 0.1875,0 0.1875,-0.203125 0,-0.109375 -0.078125,-0.109375 -0.28125,-0.109375 -0.359375,0 -0.640625,0 -0.640625,-0.171875 0,-0.0625 0.015625,-0.109375 0.03125,-0.171875 l 0.65625,-2.640625 h 1.1875 c 0.90625,0 1.078125,0.5625 1.078125,0.90625 0,0.140625 -0.078125,0.453125 -0.140625,0.6875 C 5.09375,-1.421875 5,-1.0625 5,-0.859375 5,0.21875 6.203125,0.21875 6.328125,0.21875 c 0.84375,0 1.203125,-1 1.203125,-1.140625 0,-0.125 -0.109375,-0.125 -0.125,-0.125 -0.09375,0 -0.109375,0.0625 -0.125,0.140625 C 7.03125,-0.171875 6.59375,0 6.375,0 6.046875,0 5.96875,-0.21875 5.96875,-0.609375 c 0,-0.3125 0.0625,-0.8125 0.109375,-1.140625 0.015625,-0.140625 0.03125,-0.328125 0.03125,-0.46875 0,-0.765625 -0.671875,-1.078125 -0.9375,-1.171875 z m 0,0"
                 id="id-0dc8b1d4-4dc1-4dc6-84df-fd4a7c4ef2b8" />
            </g>
          </g>
          <g
             style="fill:#000000;fill-opacity:1"
             id="id-2423ad48-ecce-4bfb-b2d4-fd2377c47011">
            <g
               transform="translate(156.277,136.259)"
               id="g4175">
              <path
                 style="stroke:none"
                 d="m 2.328125,-4.4375 c 0,-0.1875 0,-0.1875 -0.203125,-0.1875 -0.453125,0.4375 -1.078125,0.4375 -1.359375,0.4375 v 0.25 c 0.15625,0 0.625,0 1,-0.1875 v 3.546875 c 0,0.234375 0,0.328125 -0.6875,0.328125 H 0.8125 V 0 c 0.125,0 0.984375,-0.03125 1.234375,-0.03125 0.21875,0 1.09375,0.03125 1.25,0.03125 V -0.25 H 3.03125 c -0.703125,0 -0.703125,-0.09375 -0.703125,-0.328125 z m 0,0"
                 id="id-80e1ac95-e166-4334-9ebc-99675e924761" />
            </g>
          </g>
        </g>
      </g>
      <g
         transform="matrix(1.41111,0,0,1.41111,158.43698,45.763607)"
         ns1:version="1.8.2"
         ns1:texconverter="pdflatex"
         ns1:pdfconverter="inkscape"
         ns1:text="$R_2$"
         ns1:preamble="/home/benjaminspreng/.config/inkscape/extensions/textext/default_packages.tex"
         ns1:scale="4.0"
         ns1:alignment="middle center"
         ns1:stroke-to-path="0"
         ns1:jacobian_sqrt="1.41111"
         id="g3895">
        <defs
           id="id-9df8455d-5c6a-4bb2-af3c-3b3674b8e4fe">
          <g
             id="id-06991d82-e0b3-4e9b-8ff0-837c1108c73b">
            <symbol
               overflow="visible"
               id="id-99f229dc-5e8b-4313-975c-27cafb7d12d6">
              <path
                 style="stroke:none"
                 d=""
                 id="id-b998bb7b-2e77-4c30-bfd3-34af67a371b4" />
            </symbol>
            <symbol
               overflow="visible"
               id="id-1e974571-f7a7-49d2-b455-1af382a30875">
              <path
                 style="stroke:none"
                 d="m 3.734375,-6.125 c 0.0625,-0.234375 0.09375,-0.328125 0.28125,-0.359375 C 4.109375,-6.5 4.421875,-6.5 4.625,-6.5 c 0.703125,0 1.8125,0 1.8125,0.984375 0,0.34375 -0.15625,1.03125 -0.546875,1.421875 -0.265625,0.25 -0.78125,0.578125 -1.6875,0.578125 H 3.09375 Z m 1.4375,2.734375 c 1.015625,-0.21875 2.1875,-0.921875 2.1875,-1.921875 0,-0.859375 -0.890625,-1.5 -2.203125,-1.5 H 2.328125 c -0.203125,0 -0.296875,0 -0.296875,0.203125 C 2.03125,-6.5 2.125,-6.5 2.3125,-6.5 c 0.015625,0 0.203125,0 0.375,0.015625 0.1875,0.03125 0.265625,0.03125 0.265625,0.171875 0,0.03125 0,0.0625 -0.03125,0.1875 l -1.34375,5.34375 C 1.484375,-0.390625 1.46875,-0.3125 0.671875,-0.3125 0.5,-0.3125 0.40625,-0.3125 0.40625,-0.109375 0.40625,0 0.53125,0 0.546875,0 c 0.28125,0 0.984375,-0.03125 1.25,-0.03125 0.28125,0 1,0.03125 1.28125,0.03125 0.078125,0 0.1875,0 0.1875,-0.203125 0,-0.109375 -0.078125,-0.109375 -0.28125,-0.109375 -0.359375,0 -0.640625,0 -0.640625,-0.171875 0,-0.0625 0.015625,-0.109375 0.03125,-0.171875 l 0.65625,-2.640625 h 1.1875 c 0.90625,0 1.078125,0.5625 1.078125,0.90625 0,0.140625 -0.078125,0.453125 -0.140625,0.6875 C 5.09375,-1.421875 5,-1.0625 5,-0.859375 5,0.21875 6.203125,0.21875 6.328125,0.21875 c 0.84375,0 1.203125,-1 1.203125,-1.140625 0,-0.125 -0.109375,-0.125 -0.125,-0.125 -0.09375,0 -0.109375,0.0625 -0.125,0.140625 C 7.03125,-0.171875 6.59375,0 6.375,0 6.046875,0 5.96875,-0.21875 5.96875,-0.609375 c 0,-0.3125 0.0625,-0.8125 0.109375,-1.140625 0.015625,-0.140625 0.03125,-0.328125 0.03125,-0.46875 0,-0.765625 -0.671875,-1.078125 -0.9375,-1.171875 z m 0,0"
                 id="id-a3b77df5-e9d5-4063-8006-fc822d5b4322" />
            </symbol>
            <symbol
               overflow="visible"
               id="id-5c102857-96c9-409b-9eb7-4068566baf3a">
              <path
                 style="stroke:none"
                 d=""
                 id="id-3ee6887c-2467-47ba-a34a-c3385bce872e" />
            </symbol>
            <symbol
               overflow="visible"
               id="id-57f4230a-f3d4-4e3e-98bc-a4382c3fb9f9">
              <path
                 style="stroke:none"
                 d="M 3.515625,-1.265625 H 3.28125 c -0.015625,0.15625 -0.09375,0.5625 -0.1875,0.625 C 3.046875,-0.59375 2.515625,-0.59375 2.40625,-0.59375 H 1.125 c 0.734375,-0.640625 0.984375,-0.84375 1.390625,-1.171875 0.515625,-0.40625 1,-0.84375 1,-1.5 0,-0.84375 -0.734375,-1.359375 -1.625,-1.359375 -0.859375,0 -1.453125,0.609375 -1.453125,1.25 0,0.34375 0.296875,0.390625 0.375,0.390625 0.15625,0 0.359375,-0.125 0.359375,-0.375 0,-0.125 -0.046875,-0.375 -0.40625,-0.375 C 0.984375,-4.21875 1.453125,-4.375 1.78125,-4.375 c 0.703125,0 1.0625,0.546875 1.0625,1.109375 0,0.609375 -0.4375,1.078125 -0.65625,1.328125 L 0.515625,-0.265625 C 0.4375,-0.203125 0.4375,-0.1875 0.4375,0 h 2.875 z m 0,0"
                 id="id-754b2341-70c3-4778-b4cc-15acddf521fe" />
            </symbol>
          </g>
        </defs>
        <g
           id="id-fd0966e8-d2d8-4b79-aa04-9e718f9f9548"
           transform="translate(-149.118,-127.953)">
          <g
             style="fill:#000000;fill-opacity:1"
             id="id-28018ea5-c73e-430f-a865-3e1479877294">
            <g
               transform="translate(148.712,134.765)"
               id="g4452">
              <path
                 style="stroke:none"
                 d="m 3.734375,-6.125 c 0.0625,-0.234375 0.09375,-0.328125 0.28125,-0.359375 C 4.109375,-6.5 4.421875,-6.5 4.625,-6.5 c 0.703125,0 1.8125,0 1.8125,0.984375 0,0.34375 -0.15625,1.03125 -0.546875,1.421875 -0.265625,0.25 -0.78125,0.578125 -1.6875,0.578125 H 3.09375 Z m 1.4375,2.734375 c 1.015625,-0.21875 2.1875,-0.921875 2.1875,-1.921875 0,-0.859375 -0.890625,-1.5 -2.203125,-1.5 H 2.328125 c -0.203125,0 -0.296875,0 -0.296875,0.203125 C 2.03125,-6.5 2.125,-6.5 2.3125,-6.5 c 0.015625,0 0.203125,0 0.375,0.015625 0.1875,0.03125 0.265625,0.03125 0.265625,0.171875 0,0.03125 0,0.0625 -0.03125,0.1875 l -1.34375,5.34375 C 1.484375,-0.390625 1.46875,-0.3125 0.671875,-0.3125 0.5,-0.3125 0.40625,-0.3125 0.40625,-0.109375 0.40625,0 0.53125,0 0.546875,0 c 0.28125,0 0.984375,-0.03125 1.25,-0.03125 0.28125,0 1,0.03125 1.28125,0.03125 0.078125,0 0.1875,0 0.1875,-0.203125 0,-0.109375 -0.078125,-0.109375 -0.28125,-0.109375 -0.359375,0 -0.640625,0 -0.640625,-0.171875 0,-0.0625 0.015625,-0.109375 0.03125,-0.171875 l 0.65625,-2.640625 h 1.1875 c 0.90625,0 1.078125,0.5625 1.078125,0.90625 0,0.140625 -0.078125,0.453125 -0.140625,0.6875 C 5.09375,-1.421875 5,-1.0625 5,-0.859375 5,0.21875 6.203125,0.21875 6.328125,0.21875 c 0.84375,0 1.203125,-1 1.203125,-1.140625 0,-0.125 -0.109375,-0.125 -0.125,-0.125 -0.09375,0 -0.109375,0.0625 -0.125,0.140625 C 7.03125,-0.171875 6.59375,0 6.375,0 6.046875,0 5.96875,-0.21875 5.96875,-0.609375 c 0,-0.3125 0.0625,-0.8125 0.109375,-1.140625 0.015625,-0.140625 0.03125,-0.328125 0.03125,-0.46875 0,-0.765625 -0.671875,-1.078125 -0.9375,-1.171875 z m 0,0"
                 id="id-5ee38478-3848-465a-8111-a75404aaffe7" />
            </g>
          </g>
          <g
             style="fill:#000000;fill-opacity:1"
             id="id-44d4f2a7-3140-407b-b2fb-382d118cb93a">
            <g
               transform="translate(156.277,136.259)"
               id="g4456">
              <path
                 style="stroke:none"
                 d="M 3.515625,-1.265625 H 3.28125 c -0.015625,0.15625 -0.09375,0.5625 -0.1875,0.625 C 3.046875,-0.59375 2.515625,-0.59375 2.40625,-0.59375 H 1.125 c 0.734375,-0.640625 0.984375,-0.84375 1.390625,-1.171875 0.515625,-0.40625 1,-0.84375 1,-1.5 0,-0.84375 -0.734375,-1.359375 -1.625,-1.359375 -0.859375,0 -1.453125,0.609375 -1.453125,1.25 0,0.34375 0.296875,0.390625 0.375,0.390625 0.15625,0 0.359375,-0.125 0.359375,-0.375 0,-0.125 -0.046875,-0.375 -0.40625,-0.375 C 0.984375,-4.21875 1.453125,-4.375 1.78125,-4.375 c 0.703125,0 1.0625,0.546875 1.0625,1.109375 0,0.609375 -0.4375,1.078125 -0.65625,1.328125 L 0.515625,-0.265625 C 0.4375,-0.203125 0.4375,-0.1875 0.4375,0 h 2.875 z m 0,0"
                 id="id-a5d78e55-1b47-4e99-8ac4-231a0c1c77c7" />
            </g>
          </g>
        </g>
      </g>
      <g
         transform="matrix(1.41111,0,0,1.41111,107.47703,62.767522)"
         ns1:version="1.8.2"
         ns1:texconverter="pdflatex"
         ns1:pdfconverter="inkscape"
         ns1:text="$d$"
         ns1:preamble="/home/benjaminspreng/.config/inkscape/extensions/textext/default_packages.tex"
         ns1:scale="4.0"
         ns1:alignment="middle center"
         ns1:stroke-to-path="0"
         ns1:jacobian_sqrt="1.41111"
         id="g3851">
        <defs
           id="id-be0dfa2b-f611-439e-b805-a53f22651f00">
          <g
             id="id-dbedda46-185c-47ef-bd02-769387c4030f">
            <symbol
               overflow="visible"
               id="id-fbca987a-1e26-48ff-b537-aecb6f2b70ae">
              <path
                 style="stroke:none"
                 d=""
                 id="id-7c9cba99-ee03-4526-a62a-097d5a73549f" />
            </symbol>
            <symbol
               overflow="visible"
               id="id-6d47a438-6953-41fe-90f6-fac25092c643">
              <path
                 style="stroke:none"
                 d="m 5.140625,-6.8125 c 0,0 0,-0.109375 -0.125,-0.109375 -0.15625,0 -1.09375,0.09375 -1.265625,0.109375 -0.078125,0.015625 -0.140625,0.0625 -0.140625,0.1875 0,0.125 0.09375,0.125 0.234375,0.125 0.484375,0 0.5,0.0625 0.5,0.171875 L 4.3125,-6.125 3.71875,-3.765625 C 3.53125,-4.140625 3.25,-4.40625 2.796875,-4.40625 c -1.15625,0 -2.390625,1.46875 -2.390625,2.921875 0,0.9375 0.546875,1.59375 1.3125,1.59375 0.203125,0 0.703125,-0.046875 1.296875,-0.75 0.078125,0.421875 0.4375,0.75 0.90625,0.75 0.359375,0 0.578125,-0.234375 0.75,-0.546875 0.15625,-0.359375 0.296875,-0.96875 0.296875,-0.984375 0,-0.109375 -0.09375,-0.109375 -0.125,-0.109375 -0.09375,0 -0.109375,0.046875 -0.140625,0.1875 -0.171875,0.640625 -0.34375,1.234375 -0.75,1.234375 -0.28125,0 -0.296875,-0.265625 -0.296875,-0.453125 0,-0.25 0.015625,-0.3125 0.046875,-0.484375 z m -2.0625,5.625 C 3.015625,-1 3.015625,-0.984375 2.875,-0.8125 2.4375,-0.265625 2.03125,-0.109375 1.75,-0.109375 c -0.5,0 -0.640625,-0.546875 -0.640625,-0.9375 0,-0.5 0.3125,-1.71875 0.546875,-2.1875 0.3125,-0.578125 0.75,-0.953125 1.15625,-0.953125 0.640625,0 0.78125,0.8125 0.78125,0.875 0,0.0625 -0.015625,0.125 -0.03125,0.171875 z m 0,0"
                 id="id-45a561f4-0e00-4312-a7e8-3827e128d2bc" />
            </symbol>
          </g>
        </defs>
        <g
           id="id-e01d9e67-48c5-4169-867e-c832bf9d54e0"
           transform="translate(-149.118,-127.843)">
          <g
             style="fill:#000000;fill-opacity:1"
             id="id-b300a4c2-8b54-4e8b-b6da-50bcea4304f9">
            <g
               transform="translate(148.712,134.765)"
               id="g4743">
              <path
                 style="stroke:none"
                 d="m 5.140625,-6.8125 c 0,0 0,-0.109375 -0.125,-0.109375 -0.15625,0 -1.09375,0.09375 -1.265625,0.109375 -0.078125,0.015625 -0.140625,0.0625 -0.140625,0.1875 0,0.125 0.09375,0.125 0.234375,0.125 0.484375,0 0.5,0.0625 0.5,0.171875 L 4.3125,-6.125 3.71875,-3.765625 C 3.53125,-4.140625 3.25,-4.40625 2.796875,-4.40625 c -1.15625,0 -2.390625,1.46875 -2.390625,2.921875 0,0.9375 0.546875,1.59375 1.3125,1.59375 0.203125,0 0.703125,-0.046875 1.296875,-0.75 0.078125,0.421875 0.4375,0.75 0.90625,0.75 0.359375,0 0.578125,-0.234375 0.75,-0.546875 0.15625,-0.359375 0.296875,-0.96875 0.296875,-0.984375 0,-0.109375 -0.09375,-0.109375 -0.125,-0.109375 -0.09375,0 -0.109375,0.046875 -0.140625,0.1875 -0.171875,0.640625 -0.34375,1.234375 -0.75,1.234375 -0.28125,0 -0.296875,-0.265625 -0.296875,-0.453125 0,-0.25 0.015625,-0.3125 0.046875,-0.484375 z m -2.0625,5.625 C 3.015625,-1 3.015625,-0.984375 2.875,-0.8125 2.4375,-0.265625 2.03125,-0.109375 1.75,-0.109375 c -0.5,0 -0.640625,-0.546875 -0.640625,-0.9375 0,-0.5 0.3125,-1.71875 0.546875,-2.1875 0.3125,-0.578125 0.75,-0.953125 1.15625,-0.953125 0.640625,0 0.78125,0.8125 0.78125,0.875 0,0.0625 -0.015625,0.125 -0.03125,0.171875 z m 0,0"
                 id="id-db092c9d-4122-4338-b372-c65d32f17ae7" />
            </g>
          </g>
        </g>
      </g>
      <g
         transform="matrix(1.41111,0,0,1.41111,79.994435,85.950471)"
         ns1:version="1.8.2"
         ns1:texconverter="pdflatex"
         ns1:pdfconverter="inkscape"
         ns1:text="$y$"
         ns1:preamble="/home/benjaminspreng/.config/inkscape/extensions/textext/default_packages.tex"
         ns1:scale="4.0"
         ns1:alignment="middle center"
         ns1:stroke-to-path="0"
         ns1:jacobian_sqrt="1.41111"
         id="g3917">
        <defs
           id="id-c2fd6c87-eac3-4b79-9ca5-d41aa1485e59">
          <g
             id="id-da970991-4a49-43f1-9e1f-f0dc37da73dd">
            <symbol
               overflow="visible"
               id="id-7442cbd7-47c0-4270-b611-3189ce27ecee">
              <path
                 style="stroke:none"
                 d=""
                 id="id-e3d69786-fc8c-402b-a918-0dc75238de51" />
            </symbol>
            <symbol
               overflow="visible"
               id="id-a94a6ba3-89b9-42a4-88fa-857b3a949b47">
              <path
                 style="stroke:none"
                 d="m 4.84375,-3.796875 c 0.046875,-0.140625 0.046875,-0.15625 0.046875,-0.234375 0,-0.171875 -0.140625,-0.265625 -0.296875,-0.265625 -0.09375,0 -0.25,0.0625 -0.34375,0.203125 -0.015625,0.0625 -0.109375,0.359375 -0.140625,0.546875 -0.078125,0.25 -0.140625,0.53125 -0.203125,0.796875 l -0.453125,1.796875 c -0.03125,0.140625 -0.46875,0.84375 -1.125,0.84375 -0.5,0 -0.609375,-0.4375 -0.609375,-0.8125 C 1.71875,-1.375 1.890625,-2 2.21875,-2.875 2.375,-3.28125 2.421875,-3.390625 2.421875,-3.59375 c 0,-0.4375 -0.3125,-0.8125 -0.8125,-0.8125 -0.953125,0 -1.3125,1.453125 -1.3125,1.53125 0,0.109375 0.09375,0.109375 0.109375,0.109375 0.109375,0 0.109375,-0.03125 0.15625,-0.1875 0.28125,-0.9375 0.671875,-1.234375 1.015625,-1.234375 0.078125,0 0.25,0 0.25,0.3125 0,0.25 -0.109375,0.515625 -0.171875,0.703125 -0.40625,1.0625 -0.578125,1.625 -0.578125,2.09375 0,0.890625 0.625,1.1875 1.21875,1.1875 0.390625,0 0.71875,-0.171875 1,-0.453125 -0.125,0.515625 -0.25,1.015625 -0.640625,1.546875 -0.265625,0.328125 -0.640625,0.625 -1.09375,0.625 -0.140625,0 -0.59375,-0.03125 -0.765625,-0.421875 0.15625,0 0.296875,0 0.421875,-0.125 C 1.328125,1.203125 1.421875,1.0625 1.421875,0.875 1.421875,0.5625 1.15625,0.53125 1.0625,0.53125 0.828125,0.53125 0.5,0.6875 0.5,1.171875 c 0,0.5 0.4375,0.875 1.0625,0.875 1.015625,0 2.046875,-0.90625 2.328125,-2.03125 z m 0,0"
                 id="id-f056ac1f-1375-4b92-9dfa-a09eed7e75cc" />
            </symbol>
          </g>
        </defs>
        <g
           id="id-f503ee20-340a-4a3c-bf61-2fec775975b2"
           transform="translate(-149.009,-130.359)">
          <g
             style="fill:#000000;fill-opacity:1"
             id="id-8e7443b8-82cf-4dfa-9b76-4f85cd674bed">
            <g
               transform="translate(148.712,134.765)"
               id="g5023">
              <path
                 style="stroke:none"
                 d="m 4.84375,-3.796875 c 0.046875,-0.140625 0.046875,-0.15625 0.046875,-0.234375 0,-0.171875 -0.140625,-0.265625 -0.296875,-0.265625 -0.09375,0 -0.25,0.0625 -0.34375,0.203125 -0.015625,0.0625 -0.109375,0.359375 -0.140625,0.546875 -0.078125,0.25 -0.140625,0.53125 -0.203125,0.796875 l -0.453125,1.796875 c -0.03125,0.140625 -0.46875,0.84375 -1.125,0.84375 -0.5,0 -0.609375,-0.4375 -0.609375,-0.8125 C 1.71875,-1.375 1.890625,-2 2.21875,-2.875 2.375,-3.28125 2.421875,-3.390625 2.421875,-3.59375 c 0,-0.4375 -0.3125,-0.8125 -0.8125,-0.8125 -0.953125,0 -1.3125,1.453125 -1.3125,1.53125 0,0.109375 0.09375,0.109375 0.109375,0.109375 0.109375,0 0.109375,-0.03125 0.15625,-0.1875 0.28125,-0.9375 0.671875,-1.234375 1.015625,-1.234375 0.078125,0 0.25,0 0.25,0.3125 0,0.25 -0.109375,0.515625 -0.171875,0.703125 -0.40625,1.0625 -0.578125,1.625 -0.578125,2.09375 0,0.890625 0.625,1.1875 1.21875,1.1875 0.390625,0 0.71875,-0.171875 1,-0.453125 -0.125,0.515625 -0.25,1.015625 -0.640625,1.546875 -0.265625,0.328125 -0.640625,0.625 -1.09375,0.625 -0.140625,0 -0.59375,-0.03125 -0.765625,-0.421875 0.15625,0 0.296875,0 0.421875,-0.125 C 1.328125,1.203125 1.421875,1.0625 1.421875,0.875 1.421875,0.5625 1.15625,0.53125 1.0625,0.53125 0.828125,0.53125 0.5,0.6875 0.5,1.171875 c 0,0.5 0.4375,0.875 1.0625,0.875 1.015625,0 2.046875,-0.90625 2.328125,-2.03125 z m 0,0"
                 id="id-dcfe7a9a-39f1-4279-be62-ea65a8440161" />
            </g>
          </g>
        </g>
      </g>
      <g
         transform="matrix(1.41111,0,0,1.41111,46.227209,91.634111)"
         ns1:version="1.8.2"
         ns1:texconverter="pdflatex"
         ns1:pdfconverter="inkscape"
         ns1:text="$x$"
         ns1:preamble="/home/benjaminspreng/.config/inkscape/extensions/textext/default_packages.tex"
         ns1:scale="4.0"
         ns1:alignment="middle center"
         ns1:stroke-to-path="0"
         ns1:jacobian_sqrt="1.41111"
         id="g3939">
        <defs
           id="id-f9d9bd5e-6a1c-442f-a2d5-71771f865778">
          <g
             id="id-f0372e73-3a5a-420d-9854-3c248bae7a1d">
            <symbol
               overflow="visible"
               id="id-f86a6705-414e-4321-a36a-91ae4ebaa221">
              <path
                 style="stroke:none"
                 d=""
                 id="id-d1162109-052e-4ddf-b0ab-b202e407aab9" />
            </symbol>
            <symbol
               overflow="visible"
               id="id-10cca5a2-15dc-4bef-9a37-2a29f6bb3b73">
              <path
                 style="stroke:none"
                 d="M 3.328125,-3.015625 C 3.390625,-3.265625 3.625,-4.1875 4.3125,-4.1875 c 0.046875,0 0.296875,0 0.5,0.125 C 4.53125,-4 4.34375,-3.765625 4.34375,-3.515625 c 0,0.15625 0.109375,0.34375 0.375,0.34375 0.21875,0 0.53125,-0.171875 0.53125,-0.578125 0,-0.515625 -0.578125,-0.65625 -0.921875,-0.65625 -0.578125,0 -0.921875,0.53125 -1.046875,0.75 -0.25,-0.65625 -0.78125,-0.75 -1.078125,-0.75 -1.03125,0 -1.609375,1.28125 -1.609375,1.53125 0,0.109375 0.109375,0.109375 0.125,0.109375 0.078125,0 0.109375,-0.03125 0.125,-0.109375 0.34375,-1.0625 1,-1.3125 1.34375,-1.3125 0.1875,0 0.53125,0.09375 0.53125,0.671875 0,0.3125 -0.171875,0.96875 -0.53125,2.375 -0.15625,0.609375 -0.515625,1.03125 -0.953125,1.03125 -0.0625,0 -0.28125,0 -0.5,-0.125 0.25,-0.0625 0.46875,-0.265625 0.46875,-0.546875 0,-0.265625 -0.21875,-0.34375 -0.359375,-0.34375 -0.3125,0 -0.546875,0.25 -0.546875,0.578125 0,0.453125 0.484375,0.65625 0.921875,0.65625 0.671875,0 1.03125,-0.703125 1.046875,-0.75 0.125,0.359375 0.484375,0.75 1.078125,0.75 1.03125,0 1.59375,-1.28125 1.59375,-1.53125 0,-0.109375 -0.078125,-0.109375 -0.109375,-0.109375 -0.09375,0 -0.109375,0.046875 -0.140625,0.109375 -0.328125,1.078125 -1,1.3125 -1.3125,1.3125 -0.390625,0 -0.546875,-0.3125 -0.546875,-0.65625 0,-0.21875 0.046875,-0.4375 0.15625,-0.875 z m 0,0"
                 id="id-8d9a233b-1a74-43d1-8865-5325625fa617" />
            </symbol>
          </g>
        </defs>
        <g
           id="id-2c107367-cc3f-4fb2-9eed-02c48098258a"
           transform="translate(-149.009,-130.359)">
          <g
             style="fill:#000000;fill-opacity:1"
             id="id-b84c9e43-f9db-4ff1-8793-fc97bea983fa">
            <g
               transform="translate(148.712,134.765)"
               id="g5303">
              <path
                 style="stroke:none"
                 d="M 3.328125,-3.015625 C 3.390625,-3.265625 3.625,-4.1875 4.3125,-4.1875 c 0.046875,0 0.296875,0 0.5,0.125 C 4.53125,-4 4.34375,-3.765625 4.34375,-3.515625 c 0,0.15625 0.109375,0.34375 0.375,0.34375 0.21875,0 0.53125,-0.171875 0.53125,-0.578125 0,-0.515625 -0.578125,-0.65625 -0.921875,-0.65625 -0.578125,0 -0.921875,0.53125 -1.046875,0.75 -0.25,-0.65625 -0.78125,-0.75 -1.078125,-0.75 -1.03125,0 -1.609375,1.28125 -1.609375,1.53125 0,0.109375 0.109375,0.109375 0.125,0.109375 0.078125,0 0.109375,-0.03125 0.125,-0.109375 0.34375,-1.0625 1,-1.3125 1.34375,-1.3125 0.1875,0 0.53125,0.09375 0.53125,0.671875 0,0.3125 -0.171875,0.96875 -0.53125,2.375 -0.15625,0.609375 -0.515625,1.03125 -0.953125,1.03125 -0.0625,0 -0.28125,0 -0.5,-0.125 0.25,-0.0625 0.46875,-0.265625 0.46875,-0.546875 0,-0.265625 -0.21875,-0.34375 -0.359375,-0.34375 -0.3125,0 -0.546875,0.25 -0.546875,0.578125 0,0.453125 0.484375,0.65625 0.921875,0.65625 0.671875,0 1.03125,-0.703125 1.046875,-0.75 0.125,0.359375 0.484375,0.75 1.078125,0.75 1.03125,0 1.59375,-1.28125 1.59375,-1.53125 0,-0.109375 -0.078125,-0.109375 -0.109375,-0.109375 -0.09375,0 -0.109375,0.046875 -0.140625,0.109375 -0.328125,1.078125 -1,1.3125 -1.3125,1.3125 -0.390625,0 -0.546875,-0.3125 -0.546875,-0.65625 0,-0.21875 0.046875,-0.4375 0.15625,-0.875 z m 0,0"
                 id="id-27d3179c-19af-467a-96e6-dd4eb29e6c14" />
            </g>
          </g>
        </g>
      </g>
      <g
         transform="matrix(1.41111,0,0,1.41111,48.807013,53.76827)"
         ns1:version="1.8.2"
         ns1:texconverter="pdflatex"
         ns1:pdfconverter="inkscape"
         ns1:text="$z$"
         ns1:preamble="/home/benjaminspreng/.config/inkscape/extensions/textext/default_packages.tex"
         ns1:scale="4.0"
         ns1:alignment="middle center"
         ns1:stroke-to-path="0"
         ns1:jacobian_sqrt="1.41111"
         id="g3961">
        <defs
           id="id-7b19e155-3c50-4fe6-90e5-f09aaa879e3a">
          <g
             id="id-0ef46572-2fa3-4f6f-b129-590edb565605">
            <symbol
               overflow="visible"
               id="id-684ac38c-7983-411c-8312-f7cc3a709432">
              <path
                 style="stroke:none"
                 d=""
                 id="id-7d54d283-d677-435e-9b21-2ecde563d690" />
            </symbol>
            <symbol
               overflow="visible"
               id="id-4d9705ea-27a7-4e66-9f3e-91422c65362e">
              <path
                 style="stroke:none"
                 d="m 1.328125,-0.828125 c 0.53125,-0.578125 0.828125,-0.828125 1.1875,-1.140625 0,0 0.609375,-0.53125 0.96875,-0.890625 C 4.4375,-3.78125 4.65625,-4.265625 4.65625,-4.3125 c 0,-0.09375 -0.09375,-0.09375 -0.109375,-0.09375 -0.078125,0 -0.09375,0.015625 -0.15625,0.109375 -0.296875,0.484375 -0.5,0.640625 -0.734375,0.640625 -0.25,0 -0.359375,-0.15625 -0.515625,-0.328125 -0.1875,-0.21875 -0.359375,-0.421875 -0.6875,-0.421875 -0.75,0 -1.203125,0.921875 -1.203125,1.140625 0,0.046875 0.03125,0.109375 0.109375,0.109375 0.09375,0 0.109375,-0.046875 0.140625,-0.109375 0.1875,-0.46875 0.765625,-0.46875 0.84375,-0.46875 0.203125,0 0.390625,0.0625 0.625,0.140625 0.40625,0.15625 0.515625,0.15625 0.765625,0.15625 -0.359375,0.421875 -1.1875,1.140625 -1.375,1.296875 l -0.90625,0.84375 C 0.78125,-0.625 0.421875,-0.0625 0.421875,0.015625 c 0,0.09375 0.109375,0.09375 0.125,0.09375 0.078125,0 0.09375,-0.015625 0.15625,-0.125 0.234375,-0.359375 0.53125,-0.625 0.859375,-0.625 0.21875,0 0.328125,0.09375 0.578125,0.375 0.15625,0.21875 0.34375,0.375 0.625,0.375 1,0 1.578125,-1.265625 1.578125,-1.53125 0,-0.046875 -0.046875,-0.109375 -0.125,-0.109375 -0.09375,0 -0.109375,0.0625 -0.140625,0.140625 C 3.84375,-0.75 3.203125,-0.5625 2.875,-0.5625 c -0.1875,0 -0.375,-0.0625 -0.578125,-0.125 -0.34375,-0.125 -0.5,-0.171875 -0.703125,-0.171875 -0.015625,0 -0.171875,0 -0.265625,0.03125 z m 0,0"
                 id="id-b4c91921-afb8-4a44-8cbb-94578e9c5458" />
            </symbol>
          </g>
        </defs>
        <g
           id="id-ec8d2a61-3977-4c11-b916-ba41582d7b46"
           transform="translate(-149.134,-130.359)">
          <g
             style="fill:#000000;fill-opacity:1"
             id="id-ad0a47f1-b871-42ac-b464-d4ff78618d05">
            <g
               transform="translate(148.712,134.765)"
               id="g5583">
              <path
                 style="stroke:none"
                 d="m 1.328125,-0.828125 c 0.53125,-0.578125 0.828125,-0.828125 1.1875,-1.140625 0,0 0.609375,-0.53125 0.96875,-0.890625 C 4.4375,-3.78125 4.65625,-4.265625 4.65625,-4.3125 c 0,-0.09375 -0.09375,-0.09375 -0.109375,-0.09375 -0.078125,0 -0.09375,0.015625 -0.15625,0.109375 -0.296875,0.484375 -0.5,0.640625 -0.734375,0.640625 -0.25,0 -0.359375,-0.15625 -0.515625,-0.328125 -0.1875,-0.21875 -0.359375,-0.421875 -0.6875,-0.421875 -0.75,0 -1.203125,0.921875 -1.203125,1.140625 0,0.046875 0.03125,0.109375 0.109375,0.109375 0.09375,0 0.109375,-0.046875 0.140625,-0.109375 0.1875,-0.46875 0.765625,-0.46875 0.84375,-0.46875 0.203125,0 0.390625,0.0625 0.625,0.140625 0.40625,0.15625 0.515625,0.15625 0.765625,0.15625 -0.359375,0.421875 -1.1875,1.140625 -1.375,1.296875 l -0.90625,0.84375 C 0.78125,-0.625 0.421875,-0.0625 0.421875,0.015625 c 0,0.09375 0.109375,0.09375 0.125,0.09375 0.078125,0 0.09375,-0.015625 0.15625,-0.125 0.234375,-0.359375 0.53125,-0.625 0.859375,-0.625 0.21875,0 0.328125,0.09375 0.578125,0.375 0.15625,0.21875 0.34375,0.375 0.625,0.375 1,0 1.578125,-1.265625 1.578125,-1.53125 0,-0.046875 -0.046875,-0.109375 -0.125,-0.109375 -0.09375,0 -0.109375,0.0625 -0.140625,0.140625 C 3.84375,-0.75 3.203125,-0.5625 2.875,-0.5625 c -0.1875,0 -0.375,-0.0625 -0.578125,-0.125 -0.34375,-0.125 -0.5,-0.171875 -0.703125,-0.171875 -0.015625,0 -0.171875,0 -0.265625,0.03125 z m 0,0"
                 id="id-f8135b38-72d0-4cd2-9514-1a8ccab41049" />
            </g>
          </g>
        </g>
      </g>
    </g>
  </g>
</svg>
